<mxfile host="app.diagrams.net" modified="2022-09-19T15:52:22.847Z" agent="5.0 (Macintosh; Intel Mac OS X 10_15_7) AppleWebKit/537.36 (KHTML, like Gecko) Chrome/103.0.5060.134 Safari/537.36 OPR/89.0.4447.83" etag="XV1W4102Wss3d0Meu-0H" version="20.2.3" type="github">
  <diagram id="jsqCdy_YFZbEdtk8vqU_" name="Page-1">
    <mxGraphModel dx="1276" dy="727" grid="1" gridSize="10" guides="1" tooltips="1" connect="1" arrows="1" fold="1" page="1" pageScale="1" pageWidth="827" pageHeight="1169" math="0" shadow="0">
      <root>
        <mxCell id="0" />
        <mxCell id="1" parent="0" />
        <mxCell id="aqc3Kf0rUMnQWXUl1NsB-1" value="&lt;font color=&quot;#994c00&quot;&gt;def&lt;/font&gt; &lt;font color=&quot;#000066&quot;&gt;funcname&lt;/font&gt;(&lt;font color=&quot;#004c99&quot;&gt;pos1&lt;/font&gt;,&lt;font color=&quot;#004c99&quot;&gt;pos2&lt;/font&gt;,/,&lt;font color=&quot;#009999&quot;&gt;pos_or_kw&lt;/font&gt;,*,&lt;font color=&quot;#00994d&quot;&gt;kw1&lt;/font&gt;,&lt;font color=&quot;#00994d&quot;&gt;kw2,kw3&lt;/font&gt;):" style="text;html=1;strokeColor=none;fillColor=none;align=left;verticalAlign=middle;whiteSpace=wrap;rounded=0;fontSize=20;fontFamily=Courier New;fontStyle=1" vertex="1" parent="1">
          <mxGeometry x="110" y="253" width="630" height="30" as="geometry" />
        </mxCell>
        <mxCell id="aqc3Kf0rUMnQWXUl1NsB-2" value="" style="shape=curlyBracket;whiteSpace=wrap;html=1;rounded=1;flipH=1;fontFamily=Comic Sans MS;fontSize=18;fontColor=#994C00;rotation=-90;" vertex="1" parent="1">
          <mxGeometry x="314" y="181" width="20" height="110" as="geometry" />
        </mxCell>
        <mxCell id="aqc3Kf0rUMnQWXUl1NsB-3" value="&lt;b&gt;nur&lt;/b&gt; Position" style="text;html=1;strokeColor=none;fillColor=none;align=left;verticalAlign=middle;whiteSpace=wrap;rounded=0;fontFamily=Comic Sans MS;fontSize=18;fontColor=#FF6666;" vertex="1" parent="1">
          <mxGeometry x="270.5" y="200" width="107" height="30" as="geometry" />
        </mxCell>
        <mxCell id="aqc3Kf0rUMnQWXUl1NsB-6" value="" style="shape=curlyBracket;whiteSpace=wrap;html=1;rounded=1;flipH=1;fontFamily=Comic Sans MS;fontSize=18;fontColor=#994C00;rotation=-90;" vertex="1" parent="1">
          <mxGeometry x="453.5" y="181" width="20" height="110" as="geometry" />
        </mxCell>
        <mxCell id="aqc3Kf0rUMnQWXUl1NsB-7" value="Keyword oder Position" style="text;html=1;strokeColor=none;fillColor=none;align=center;verticalAlign=middle;whiteSpace=wrap;rounded=0;fontFamily=Comic Sans MS;fontSize=18;fontColor=#FF6666;" vertex="1" parent="1">
          <mxGeometry x="403.5" y="190" width="120" height="30" as="geometry" />
        </mxCell>
        <mxCell id="aqc3Kf0rUMnQWXUl1NsB-8" value="" style="shape=curlyBracket;whiteSpace=wrap;html=1;rounded=1;flipH=1;fontFamily=Comic Sans MS;fontSize=18;fontColor=#994C00;rotation=-90;" vertex="1" parent="1">
          <mxGeometry x="609" y="171.5" width="20" height="129" as="geometry" />
        </mxCell>
        <mxCell id="aqc3Kf0rUMnQWXUl1NsB-9" value="&lt;b&gt;nur&lt;/b&gt; Keyword" style="text;html=1;strokeColor=none;fillColor=none;align=left;verticalAlign=middle;whiteSpace=wrap;rounded=0;fontFamily=Comic Sans MS;fontSize=18;fontColor=#FF6666;" vertex="1" parent="1">
          <mxGeometry x="565.5" y="200" width="107" height="30" as="geometry" />
        </mxCell>
        <mxCell id="aqc3Kf0rUMnQWXUl1NsB-15" style="edgeStyle=orthogonalEdgeStyle;rounded=0;orthogonalLoop=1;jettySize=auto;html=1;exitX=0.5;exitY=1;exitDx=0;exitDy=0;fontColor=#00994D;startArrow=classic;startFill=1;strokeWidth=2;fillColor=#e1d5e7;strokeColor=#9673a6;" edge="1" parent="1">
          <mxGeometry relative="1" as="geometry">
            <mxPoint x="392" y="286" as="sourcePoint" />
            <mxPoint x="538" y="286" as="targetPoint" />
            <Array as="points">
              <mxPoint x="392" y="326" />
              <mxPoint x="538" y="326" />
              <mxPoint x="538" y="286" />
            </Array>
          </mxGeometry>
        </mxCell>
        <mxCell id="aqc3Kf0rUMnQWXUl1NsB-16" value="spezielle Marker zur Abgrenzung" style="text;html=1;strokeColor=none;fillColor=none;align=center;verticalAlign=middle;whiteSpace=wrap;rounded=0;fontFamily=Comic Sans MS;fontSize=14;fontColor=#330066;" vertex="1" parent="1">
          <mxGeometry x="397.13" y="330" width="132.75" height="30" as="geometry" />
        </mxCell>
      </root>
    </mxGraphModel>
  </diagram>
</mxfile>
